<svg width="45" height="45" viewBox="0 0 45 45" fill="none" xmlns="http://www.w3.org/2000/svg">
<path fill-rule="evenodd" clip-rule="evenodd" d="M0 11.25C0 9.75816 0.592632 8.32742 1.64752 7.27252C2.70242 6.21763 4.13316 5.625 5.625 5.625H39.375C40.8668 5.625 42.2976 6.21763 43.3525 7.27252C44.4074 8.32742 45 9.75816 45 11.25V33.75C45 35.2418 44.4074 36.6726 43.3525 37.7275C42.2976 38.7824 40.8668 39.375 39.375 39.375H5.625C4.13316 39.375 2.70242 38.7824 1.64752 37.7275C0.592632 36.6726 0 35.2418 0 33.75V11.25ZM5.625 8.4375C4.87908 8.4375 4.16371 8.73382 3.63626 9.26126C3.10882 9.78871 2.8125 10.5041 2.8125 11.25V14.0625H42.1875V11.25C42.1875 10.5041 41.8912 9.78871 41.3637 9.26126C40.8363 8.73382 40.1209 8.4375 39.375 8.4375H5.625ZM42.1875 19.6875H2.8125V33.75C2.8125 34.4959 3.10882 35.2113 3.63626 35.7387C4.16371 36.2662 4.87908 36.5625 5.625 36.5625H39.375C40.1209 36.5625 40.8363 36.2662 41.3637 35.7387C41.8912 35.2113 42.1875 34.4959 42.1875 33.75V19.6875Z" fill="black"/>
<path d="M5.625 28.125C5.625 27.3791 5.92132 26.6637 6.44876 26.1363C6.97621 25.6088 7.69158 25.3125 8.4375 25.3125H11.25C11.9959 25.3125 12.7113 25.6088 13.2387 26.1363C13.7662 26.6637 14.0625 27.3791 14.0625 28.125V30.9375C14.0625 31.6834 13.7662 32.3988 13.2387 32.9262C12.7113 33.4537 11.9959 33.75 11.25 33.75H8.4375C7.69158 33.75 6.97621 33.4537 6.44876 32.9262C5.92132 32.3988 5.625 31.6834 5.625 30.9375V28.125Z" fill="black"/>
</svg>
