<svg width="50" height="50" viewBox="0 0 50 50" fill="none" xmlns="http://www.w3.org/2000/svg">
<path d="M29.6875 37.5H35.9375V43.75H29.6875V37.5Z" fill="#23D3D3"/>
<path d="M40.625 37.5H46.875V43.75H40.625V37.5Z" fill="#23D3D3"/>
<path d="M29.6875 26.5625H35.9375V32.8125H29.6875V26.5625Z" fill="#23D3D3"/>
<path d="M40.625 26.5625H46.875V32.8125H40.625V26.5625Z" fill="#23D3D3"/>
<path d="M26.5625 37.5H6.25V15.625H43.75V23.4375H46.875V15.625C46.8742 14.7965 46.5447 14.0021 45.9588 13.4162C45.3729 12.8303 44.5785 12.5008 43.75 12.5H34.375V6.25C34.3742 5.42145 34.0447 4.62708 33.4588 4.0412C32.8729 3.45533 32.0785 3.12583 31.25 3.125H18.75C17.9215 3.12583 17.1271 3.45533 16.5412 4.0412C15.9553 4.62708 15.6258 5.42145 15.625 6.25V12.5H6.25C5.42145 12.5008 4.62708 12.8303 4.0412 13.4162C3.45533 14.0021 3.12583 14.7965 3.125 15.625V37.5C3.12583 38.3285 3.45533 39.1229 4.0412 39.7088C4.62708 40.2947 5.42145 40.6242 6.25 40.625H26.5625V37.5ZM18.75 6.25H31.25V12.5H18.75V6.25Z" fill="#23D3D3"/>
</svg>
