<svg width="50" height="50" viewBox="0 0 50 50" fill="none" xmlns="http://www.w3.org/2000/svg">
<path fill-rule="evenodd" clip-rule="evenodd" d="M4.6875 6.25H45.3125L46.875 7.8125V28.125H43.75V18.75H6.25V40.625H28.125V43.75H4.6875L3.125 42.1875V7.8125L4.6875 6.25ZM6.25 15.625H43.75V9.375H6.25V15.625ZM21.875 37.5V34.0813C21.344 33.8882 20.8487 33.6084 20.4094 33.2531L17.4563 34.9375L15.8938 32.25L18.8219 30.5406C18.7218 29.9752 18.7218 29.3967 18.8219 28.8312L15.8938 27.125L17.4563 24.4375L20.4094 26.125C20.8813 25.75 21.3719 25.4719 21.875 25.2937V21.875H25V25.2937C25.5351 25.4778 26.0319 25.7585 26.4656 26.1219L29.4187 24.4375L30.9812 27.125L28.0531 28.8344C28.1528 29.3988 28.1528 29.9762 28.0531 30.5406L30.9812 32.25L29.4187 34.9375L26.4656 33.25C26.0214 33.5988 25.5274 33.879 25 34.0813V37.5H21.875ZM21.0938 29.6875C21.0938 30.3375 21.3219 30.8906 21.7781 31.3469C21.9933 31.5683 22.2515 31.7432 22.5369 31.8609C22.8223 31.9786 23.1288 32.0366 23.4375 32.0312C23.7462 32.0366 24.0527 31.9786 24.3381 31.8609C24.6235 31.7432 24.8817 31.5683 25.0969 31.3469C25.3183 31.1317 25.4932 30.8735 25.6109 30.5881C25.7286 30.3027 25.7866 29.9962 25.7812 29.6875C25.7866 29.3788 25.7286 29.0723 25.6109 28.7869C25.4932 28.5015 25.3183 28.2433 25.0969 28.0281C24.8817 27.8067 24.6235 27.6318 24.3381 27.5141C24.0527 27.3964 23.7462 27.3384 23.4375 27.3438C23.1288 27.3384 22.8223 27.3964 22.5369 27.5141C22.2515 27.6318 21.9933 27.8067 21.7781 28.0281C21.5567 28.2433 21.3818 28.5015 21.2641 28.7869C21.1464 29.0723 21.0884 29.3788 21.0938 29.6875ZM37.7625 46.875V43.4562C37.2315 43.2632 36.7362 42.9833 36.2969 42.6281L33.3438 44.3125L31.7812 41.625L34.7125 39.9156C34.6126 39.3502 34.6126 38.7717 34.7125 38.2062L31.7812 36.5L33.3438 33.8125L36.2969 35.5C36.7687 35.125 37.2594 34.8469 37.7656 34.6687V31.25H40.8906V34.6687C41.4244 34.8535 41.9201 35.1342 42.3531 35.4969L45.3063 33.8125L46.8688 36.5L43.9406 38.2094C44.0408 38.7737 44.0408 39.3513 43.9406 39.9156L46.8688 41.625L45.3063 44.3125L42.3531 42.625C41.9089 42.9739 41.4149 43.2541 40.8875 43.4562V46.875H37.7625ZM36.9812 39.0625C36.9812 39.7125 37.2094 40.2656 37.6656 40.7219C37.8808 40.9433 38.139 41.1182 38.4244 41.2359C38.7098 41.3536 39.0163 41.4116 39.325 41.4062C39.6337 41.4116 39.9402 41.3536 40.2256 41.2359C40.511 41.1182 40.7692 40.9433 40.9844 40.7219C41.2063 40.507 41.3819 40.2489 41.5001 39.9634C41.6184 39.678 41.6768 39.3714 41.6719 39.0625C41.6768 38.7536 41.6184 38.447 41.5001 38.1616C41.3819 37.8761 41.2063 37.618 40.9844 37.4031C40.7696 37.1821 40.5118 37.0074 40.227 36.8897C39.9422 36.772 39.6363 36.7138 39.3281 36.7188C39.0189 36.713 38.7118 36.7707 38.4259 36.8885C38.1399 37.0062 37.8811 37.1813 37.6656 37.4031C37.4442 37.6183 37.2693 37.8765 37.1516 38.1619C37.0339 38.4473 36.9759 38.7538 36.9812 39.0625Z" fill="#23D3D3"/>
</svg>
