<svg width="50" height="50" viewBox="0 0 50 50" fill="none" xmlns="http://www.w3.org/2000/svg">
<path d="M25 0C11.1929 0 0 11.1929 0 25C0 38.8071 11.1929 50 25 50C38.8071 50 50 38.8071 50 25C50 11.1929 38.8071 0 25 0ZM24.9493 13.901C27.2553 13.9314 29.1653 15.8086 29.7999 18.2007C30.0418 19.1767 30.0691 20.1668 29.8252 21.2006C29.4574 22.656 28.7211 24.0776 27.3493 24.9509L29.3487 25.9007L34.0995 28.201C34.5662 28.401 34.7993 28.8009 34.7993 29.401V33.9998C34.7993 34.9482 34.8746 35.7662 33.699 36.1005H16.1997C15.0691 36.0843 15.0223 34.9391 15.0488 33.9998V29.401C15.0488 28.801 15.2991 28.3837 15.7991 28.1503L20.6987 25.9007L22.6 25C21.7334 24.4333 21.05 23.6507 20.55 22.6507C19.9495 21.3305 19.7115 19.6168 20.1495 18.0503C20.7031 15.9268 22.4371 14.0191 24.9493 13.901ZM16.7996 16.0002C17.533 16.0002 18.1991 16.2175 18.799 16.6508C18.6327 17.1174 18.4918 17.6095 18.3748 18.1263C18.2581 18.6428 18.199 19.1838 18.199 19.7505C18.199 20.5838 18.3155 21.3838 18.5489 22.1505C18.7822 22.9171 19.116 23.6178 19.5494 24.2512C19.3494 24.5178 19.0833 24.7509 18.7499 24.9509L15.0487 26.6511C14.5487 26.9178 14.1487 27.2918 13.8487 27.7752C13.5487 28.2585 13.3991 28.801 13.3991 29.401V33.9998H9.75013C9.22075 33.9916 8.86321 33.4581 8.84933 32.9012V28.5509C8.84933 28.0509 9.032 27.717 9.39867 27.5503L14.949 25C13.515 24.1185 12.8232 22.5252 12.7502 20.751C12.7754 18.5651 14.2082 16.1818 16.7996 16.0002ZM33.1988 16.0002C35.5026 16.0366 37.1667 18.3207 37.2499 20.751C37.2373 22.3592 36.6095 23.912 35.1492 24.951L40.5997 27.5504C40.9664 27.7504 41.149 28.0842 41.149 28.5509V32.9012C41.1435 33.4175 40.8649 33.9472 40.2499 33.9998H36.4995V29.401C36.4995 28.801 36.35 28.2585 36.05 27.7751C35.75 27.2918 35.35 26.9178 34.85 26.6511C33.2956 25.9287 31.5105 25.4101 30.3493 24.2005C31.2159 22.8672 31.649 21.3838 31.649 19.7505C31.649 18.7171 31.4663 17.6999 31.0996 16.6999C31.7018 16.3023 32.4145 16.0114 33.1988 16.0002Z" fill="#23D3D3"/>
</svg>
