<svg width="45" height="45" viewBox="0 0 45 45" fill="none" xmlns="http://www.w3.org/2000/svg">
<path d="M37.5 38.4375H7.5C5.4375 38.4375 3.75 36.75 3.75 34.6875V15.0938C3.75 13.875 4.3125 12.75 5.34375 12L22.5 0L39.6562 12C40.6875 12.6562 41.25 13.875 41.25 15.0938V34.6875C41.25 36.75 39.5625 38.4375 37.5 38.4375Z" fill="#78909C"/>
<path d="M13.125 0.9375H31.875V30H13.125V0.9375Z" fill="#AED581"/>
<path d="M12.1875 0V30.9375H32.8125V0H12.1875ZM30.9375 29.0625H14.0625V1.875H30.9375V29.0625Z" fill="#558B2F"/>
<path d="M31.875 2.8125C31.875 4.40625 31.5938 5.625 30 5.625C28.4062 5.625 27.1875 4.40625 27.1875 2.8125C27.1875 1.21875 28.4062 0.9375 30 0.9375C31.5938 0.9375 31.875 1.21875 31.875 2.8125Z" fill="#558B2F"/>
<path d="M15 0.9375C16.5938 0.9375 17.8125 1.21875 17.8125 2.8125C17.8125 4.40625 16.5938 5.625 15 5.625C13.4062 5.625 13.125 4.40625 13.125 2.8125C13.125 1.21875 13.4062 0.9375 15 0.9375Z" fill="#558B2F"/>
<path d="M22.5 9.375C23.5355 9.375 24.375 8.53553 24.375 7.5C24.375 6.46447 23.5355 5.625 22.5 5.625C21.4645 5.625 20.625 6.46447 20.625 7.5C20.625 8.53553 21.4645 9.375 22.5 9.375Z" fill="#558B2F"/>
<path d="M22.5 24.375C25.6066 24.375 28.125 21.8566 28.125 18.75C28.125 15.6434 25.6066 13.125 22.5 13.125C19.3934 13.125 16.875 15.6434 16.875 18.75C16.875 21.8566 19.3934 24.375 22.5 24.375Z" fill="#558B2F"/>
<path d="M37.5 38.4375H7.5C5.4375 38.4375 3.75 36.75 3.75 34.6875V15.9375L22.5 28.125L41.25 15.9375V34.6875C41.25 36.75 39.5625 38.4375 37.5 38.4375Z" fill="#CFD8DC"/>
</svg>
