<svg width="45" height="45" viewBox="0 0 45 45" fill="none" xmlns="http://www.w3.org/2000/svg">
<path d="M5.625 5.625H39.375C39.8723 5.625 40.3492 5.82254 40.7008 6.17417C41.0525 6.52581 41.25 7.00272 41.25 7.5V37.5C41.25 37.9973 41.0525 38.4742 40.7008 38.8258C40.3492 39.1775 39.8723 39.375 39.375 39.375H5.625C5.12772 39.375 4.65081 39.1775 4.29917 38.8258C3.94754 38.4742 3.75 37.9973 3.75 37.5V7.5C3.75 7.00272 3.94754 6.52581 4.29917 6.17417C4.65081 5.82254 5.12772 5.625 5.625 5.625ZM27.7369 18.3619L23.1431 22.9556L19.1663 18.9769L11.2106 26.9325L13.8619 29.5837L19.1663 24.2812L23.1431 28.2581L30.3881 21.0131L33.75 24.375V15H24.375L27.7369 18.3619Z" fill="black"/>
</svg>
