<svg width="50" height="50" viewBox="0 0 50 50" fill="none" xmlns="http://www.w3.org/2000/svg">
<path d="M42.9688 8.59375H28.4375L25.1563 15.1562H6.875V41.4062H46.25V8.59375H42.9688ZM42.9688 15.1562H30.1562L31.875 11.875H42.9688V15.1562Z" fill="#23D3D3"/>
<path d="M32.2188 15.625V24.9984L24.1125 20.3109" fill="#23D3D3"/>
<path d="M40.3234 20.3109L32.2188 24.9984V15.625" fill="#23D3D3"/>
<path d="M40.3234 20.3109V29.6875L32.2188 24.9984" fill="black"/>
<path d="M24.1125 20.3109V29.6875L32.2188 24.9984" fill="#0057A9"/>
<path d="M32.2188 24.9984V34.375L24.1125 29.6875" fill="#0057A9"/>
<path d="M32.2219 24.9984L32.2188 34.375L40.3234 29.6906" fill="black"/>
<path d="M40.3234 29.6875V39.0625L32.2188 34.375" fill="#23D3D3"/>
<path d="M24.1125 29.6875V39.0625L32.2188 34.375" fill="#23D3D3"/>
<path d="M32.2188 34.375V43.75L24.1125 39.0625" fill="black"/>
<path d="M32.2219 34.375L32.2188 43.75L40.3234 39.0656" fill="#0057A9"/>
<path d="M24.1125 29.6875V39.0625L16.0078 34.375" fill="#23D3D3"/>
<path d="M16.0078 34.375V43.75L24.1125 39.0625" fill="#0057A9"/>
<path d="M24.1125 39.0625V48.4375L16.0078 43.75" fill="#0057A9"/>
<path d="M24.1157 39.0625L24.1125 48.4375L32.2188 43.7531" fill="black"/>
<path d="M48.4297 34.3781L40.3235 39.0625L40.3282 29.6875" fill="#23D3D3"/>
<path d="M48.4297 34.375V43.75L40.3235 39.0625" fill="black"/>
<path d="M40.3234 39.0625V48.4375L32.2188 43.75" fill="#0057A9"/>
<path d="M40.3282 39.0625L40.3235 48.4375L48.4297 43.7531" fill="black"/>
</svg>
