<svg width="50" height="50" viewBox="0 0 50 50" fill="none" xmlns="http://www.w3.org/2000/svg">
<g clip-path="url(#clip0)">
<path d="M43.7283 49.9512H6.2649C4.54132 49.9512 3.06978 49.3415 1.85026 48.1219C0.630752 46.9024 0.0209961 45.4309 0.0209961 43.7073V6.2439C0.0209961 4.52033 0.630752 3.04878 1.85026 1.82927C3.06978 0.609756 4.54132 0 6.2649 0H43.7283C45.4519 0 46.9234 0.609756 48.1429 1.82927C49.3625 3.04878 49.9722 4.52033 49.9722 6.2439V43.7073C49.9722 45.4309 49.3625 46.9024 48.1429 48.1219C46.9234 49.3415 45.4519 49.9512 43.7283 49.9512ZM20.3137 12.4878H15.6308V7.80488C15.6308 7.38211 15.4763 7.01626 15.1673 6.70732C14.8584 6.39837 14.4925 6.2439 14.0698 6.2439C13.647 6.2439 13.2812 6.39837 12.9722 6.70732C12.6633 7.01626 12.5088 7.38211 12.5088 7.80488V12.4878H7.82587C7.40311 12.4878 7.03726 12.6423 6.72831 12.9512C6.41937 13.2602 6.2649 13.626 6.2649 14.0488C6.2649 14.4715 6.41937 14.8374 6.72831 15.1463C7.03726 15.4553 7.40311 15.6098 7.82587 15.6098H12.5088V20.2927C12.5088 20.7154 12.6633 21.0813 12.9722 21.3902C13.2812 21.6992 13.647 21.8537 14.0698 21.8537C14.4925 21.8537 14.8584 21.6992 15.1673 21.3902C15.4763 21.0813 15.6308 20.7154 15.6308 20.2927V15.6098H20.3137C20.7364 15.6098 21.1023 15.4553 21.4112 15.1463C21.7202 14.8374 21.8747 14.4715 21.8747 14.0488C21.8747 13.626 21.7202 13.2602 21.4112 12.9512C21.1023 12.6423 20.7364 12.4878 20.3137 12.4878ZM21.5088 28.4634C21.2649 28.2195 20.9641 28.0976 20.6064 28.0976C20.2486 28.0976 19.9397 28.2114 19.6795 28.439L14.0698 34.0488L8.46002 28.439C8.19986 28.2114 7.89091 28.0976 7.53319 28.0976C7.17547 28.0976 6.87465 28.2195 6.63075 28.4634C6.38685 28.7073 6.2649 29.0081 6.2649 29.3659C6.2649 29.7236 6.37872 30.0325 6.60636 30.2927L12.2161 35.9024L6.65514 41.4634C6.39498 41.7236 6.2649 42.0325 6.2649 42.3902C6.2649 42.748 6.39498 43.0569 6.65514 43.3171C6.91531 43.5772 7.22425 43.7073 7.58197 43.7073C7.9397 43.7073 8.24864 43.5772 8.5088 43.3171L14.0698 37.7561L19.6308 43.3171C19.8909 43.5772 20.1999 43.7073 20.5576 43.7073C20.9153 43.7073 21.2242 43.5772 21.4844 43.3171C21.7446 43.0569 21.8747 42.748 21.8747 42.3902C21.8747 42.0325 21.7446 41.7236 21.4844 41.4634L15.9234 35.9024L21.5332 30.2927C21.7608 30.0325 21.8747 29.7236 21.8747 29.3659C21.8747 29.0081 21.7527 28.7073 21.5088 28.4634ZM42.1673 12.4878H29.6795C29.2568 12.4878 28.8909 12.6423 28.582 12.9512C28.273 13.2602 28.1186 13.626 28.1186 14.0488C28.1186 14.4715 28.273 14.8374 28.582 15.1463C28.8909 15.4553 29.2568 15.6098 29.6795 15.6098H42.1673C42.5901 15.6098 42.956 15.4553 43.2649 15.1463C43.5738 14.8374 43.7283 14.4715 43.7283 14.0488C43.7283 13.626 43.5738 13.2602 43.2649 12.9512C42.956 12.6423 42.5901 12.4878 42.1673 12.4878ZM42.1673 31.2195H29.6795C29.2568 31.2195 28.8909 31.374 28.582 31.6829C28.273 31.9919 28.1186 32.3577 28.1186 32.7805C28.1186 33.2033 28.273 33.5691 28.582 33.878C28.8909 34.187 29.2568 34.3415 29.6795 34.3415H42.1673C42.5901 34.3415 42.956 34.187 43.2649 33.878C43.5738 33.5691 43.7283 33.2033 43.7283 32.7805C43.7283 32.3577 43.5738 31.9919 43.2649 31.6829C42.956 31.374 42.5901 31.2195 42.1673 31.2195ZM42.1673 37.4634H29.6795C29.2568 37.4634 28.8909 37.6179 28.582 37.9268C28.273 38.2358 28.1186 38.6016 28.1186 39.0244C28.1186 39.4472 28.273 39.813 28.582 40.1219C28.8909 40.4309 29.2568 40.5854 29.6795 40.5854H42.1673C42.5901 40.5854 42.956 40.4309 43.2649 40.1219C43.5738 39.813 43.7283 39.4472 43.7283 39.0244C43.7283 38.6016 43.5738 38.2358 43.2649 37.9268C42.956 37.6179 42.5901 37.4634 42.1673 37.4634Z" fill="#23D3D3"/>
</g>
<defs>
<clipPath id="clip0">
<rect width="50" height="49.9512" fill="white"/>
</clipPath>
</defs>
</svg>
